<?xml version="1.0" encoding="utf-8"?>
<!-- Generator: Adobe Illustrator 26.5.0, SVG Export Plug-In . SVG Version: 6.00 Build 0)  -->
<svg version="1.1" id="Layer_1" xmlns="http://www.w3.org/2000/svg" xmlns:xlink="http://www.w3.org/1999/xlink" x="0px" y="0px"
	 viewBox="0 0 1797.2 446" style="enable-background:new 0 0 1797.2 446;" xml:space="preserve">
<style type="text/css">
	.st0{fill:#070808;}
	.st1{fill:#070808;fill-opacity:0;}
</style>
<g transform="translate(87.18723917007446,104.8193130493164)">
	<g transform="matrix(0.16741154687499998,0,0,0.16741154687499998,68.9489484383983,16.802206931269527)">
		<g transform="translate(0, 0)">
			<g transform="scale(1)">
				<path class="st0" d="M-815.6,1711.5c-24.2,0-43.6-7-58.3-20.9c-14.7-14.3-22-32.3-22-54l0,0v-2127c0-21.7,7.3-39.7,22-54
					c14.7-13.9,34.1-20.9,58.3-20.9l0,0h181.5c24.2,0,43.6,7,58.3,20.9c14.3,14.3,21.4,32.3,21.4,54l0,0v1928.5h1214
					c26.4,0,47.5,7.2,63.5,21.5c15.6,13.9,23.3,31.7,23.3,53.4l0,0v123.6c0,21.7-8.4,39.7-25.3,54c-16.8,13.9-37.4,20.9-61.6,20.9
					l0,0L-815.6,1711.5L-815.6,1711.5z"/>
			</g>
		</g>
		<g transform="translate(29, 2.0162198458066882)">
			<g>
				<g>
					<g>
						<rect x="954.8" y="-567.2" class="st1" width="2088.3" height="2309.1"/>
						<path class="st0" d="M1999-567.2L3043.1,1742H954.8L1999-567.2z M1999,336.4l-468.1,1038.3h938.9L1999,336.4L1999,336.4z"/>
					</g>
				</g>
			</g>
		</g>
		<g transform="translate(65, 0)">
			<g transform="scale(1)">
				<path class="st0" d="M3335.4,1744c-24.2,0-44.1-7-59.6-20.9c-16-14.3-24-32.3-24-54l0,0V127.6c0-21.7,8-39.7,24-54
					c15.6-13.9,35.4-20.9,59.6-20.9l0,0h156.2c26.8,0,47.5,6.6,62.2,19.7c14.3,12.8,21.4,31.1,21.4,55.1l0,0v143.3
					c73-80.5,157.3-142.3,252.8-185.7c95.5-43.3,214.7-65,357.8-65l0,0c232.5,0,412.9,66.7,541.2,200.2
					c128.3,133.1,192.5,309.2,192.5,528.5l0,0v920.2c0,21.7-7.8,39.7-23.3,54c-15.6,13.9-35.4,20.9-59.6,20.9l0,0h-167.2
					c-24.2,0-44.3-7-60.3-20.9c-15.6-14.3-23.3-32.3-23.3-54l0,0v-901c0-155.9-42.4-277.3-127-364.4c-85.1-86.6-206.3-130-363.6-130
					l0,0c-155.1,0-278.7,43.9-370.7,131.7c-92,87.8-138,208.7-138,362.6l0,0v901c0,21.7-7.8,39.7-23.3,54
					c-16,13.9-36.1,20.9-60.3,20.9l0,0H3335.4z"/>
			</g>
		</g>
		<g transform="translate(94, 0)">
			<g transform="scale(1)">
				<path class="st0" d="M5884.2,1776.5c-254.5,0-445.3-73.7-572.3-221.1c-127.5-147.4-195.9-333.8-205.5-559.3l0,0l-3.9-97.5
					l3.9-98c9.5-223.2,78.4-409,206.8-557.6c128.8-148.5,319.1-222.8,571-222.8l0,0c251.9,0,448.1,80.3,588.5,240.8l0,0v-751.3
					c0-21.7,7.8-39.7,23.3-54c16-13.9,36.1-20.9,60.3-20.9l0,0h163.3c24.2,0,44.1,7,59.6,20.9c16,14.3,24,32.3,24,54l0,0v2159.5
					c0,21.7-8,39.7-24,54c-15.6,13.9-35.4,20.9-59.6,20.9l0,0h-156.2c-24.2,0-43.6-7-58.3-20.9c-14.7-14.3-22-32.3-22-54l0,0v-139.8
					C6345.2,1694.1,6145.6,1776.5,5884.2,1776.5L5884.2,1776.5z M5952.9,1522.9c169.4,0,296.6-50.5,381.7-151.4
					c84.7-100.9,130.7-220.7,138-359.1l0,0c2.2-24,3.2-65.2,3.2-123.6l0,0c0-60.7-1.1-103.1-3.2-127.1l0,0
					c-5.2-132.3-51.9-246.6-140-342.9c-88.6-96.7-215.2-145-379.8-145l0,0c-174.6,0-301.8,48.7-381.7,146.2
					c-79.9,97.9-123.4,225.9-130.3,384.1l0,0l-3.9,94.6C5436.9,1314.8,5608.9,1522.9,5952.9,1522.9L5952.9,1522.9z"/>
			</g>
		</g>
		<g transform="translate(124, 0)">
			<g transform="scale(1)">
				<path class="st0" d="M7097.3,1744c-24.2,0-43.6-7.1-58.3-21.2c-14.7-14.5-22-32.8-22-54.7l0,0V-489.3c0-22,7.4-40.2,22-54.7
					c14.7-14.1,34.1-21.2,58.3-21.2l0,0h181.5c26.8,0,47.3,6.7,61.6,20c14.7,12.9,22,31.6,22,55.9l0,0v2157.3c0,22-8,40.2-24,54.7
					c-15.6,14.1-35.4,21.2-59.6,21.2l0,0L7097.3,1744L7097.3,1744z"/>
			</g>
		</g>
		<g transform="translate(133, 0)">
			<g transform="scale(1)">
				<path class="st0" d="M7663.9,1744c-19.4,0-36.3-6.7-50.5-20c-14.7-12.9-22-28.2-22-45.9l0,0c0-15.3,5-29.6,14.9-43l0,0
					l831.6-1065.7l-792-1025.7c-9.5-13.3-14.3-27.7-14.3-43l0,0c0-17.6,7.1-33,21.4-45.9c14.7-13.3,31.8-20,51.2-20l0,0h206.8
					c34.1,0,65.7,18.6,94.6,55.9l0,0l650.7,835l642.9-835c24.2-37.3,55.7-55.9,94.6-55.9l0,0h192.5c19.4,0,36.3,6.7,50.5,20
					c14.7,12.9,22,28.2,22,45.9l0,0c0,15.3-5,29.6-14.9,43l0,0L8859.7,572.9l831.6,1062.2c9.9,13.3,14.9,27.7,14.9,43l0,0
					c0,17.6-8,33-24,45.9c-15.6,13.3-33.1,20-52.5,20l0,0h-207.4c-36.3,0-67.6-17.6-94-53l0,0l-687-870.9L7958.2,1691
					c-26.4,35.3-57.7,53-94,53l0,0H7663.9z"/>
			</g>
		</g>
	</g>
</g>
</svg>
