

<svg xmlns="http://www.w3.org/2000/svg" version="1.0" width="100.000000pt" height="158.000000p" viewBox="0 0 300.000000 158.000000" preserveAspectRatio="xMidYMid meet">
<metadata>
Created by potrace 1.10, written by Peter Selinger 2001-2011
</metadata>
<g transform="translate(0.000000,158.000000) scale(0.100000,-0.100000)" fill="#000000" stroke="none">
<path d="M737 949 c-32 -19 -47 -65 -47 -144 0 -41 4 -75 8 -75 26 0 82 95 82 140 0 24 13 25 69 5 39 -14 41 -13 41 6 0 11 -13 34 -29 50 -23 22 -39 29 -68 29 -21 0 -46 -5 -56 -11z"/>
<path d="M1090 791 c0 -134 1 -141 20 -141 19 0 20 7 20 113 0 62 4 105 9 97 4 -8 20 -59 35 -112 27 -92 29 -96 55 -94 23 3 29 12 53 87 14 46 27 94 27 107 1 12 6 22 12 22 9 0 10 -31 7 -110 -5 -103 -4 -110 13 -110 18 0 19 10 19 140 l0 140 -27 0 c-27 0 -29 -5 -62 -113 -19 -61 -37 -116 -39 -121 -3 -5 -22 45 -42 110 -37 116 -39 119 -69 122 l-31 3 0 -140z"/>
<path d="M1620 790 c0 -133 1 -140 20 -140 19 0 20 7 20 140 0 133 -1 140 -20 140 -19 0 -20 -7 -20 -140z"/>
<path d="M1860 910 c0 -13 7 -20 20 -20 13 0 20 7 20 20 0 13 -7 20 -20 20 -13 0 -20 -7 -20 -20z"/>
<path d="M2000 917 c-78 -39 -78 -214 0 -255 40 -21 117 -10 148 22 25 24 27 33 27 107 0 78 -1 81 -33 110 -36 32 -96 39 -142 16z m115 -42 c25 -24 30 -50 26 -110 -4 -43 -16 -60 -51 -75 -38 -16 -82 0 -99 36 -23 52 -5 153 31 167 32 13 70 6 93 -18z"/>
<path d="M1730 884 c0 -17 -6 -28 -20 -31 -25 -7 -26 -33 -2 -33 16 0 17 -8 14 -64 -4 -55 -1 -67 17 -85 28 -28 81 -29 81 -1 0 16 -7 20 -30 20 l-30 0 0 65 0 65 35 0 c24 0 35 5 35 15 0 10 -11 15 -35 15 -32 0 -35 2 -35 30 0 20 -5 30 -15 30 -9 0 -15 -10 -15 -26z"/>
<path d="M800 860 c0 -26 34 -88 66 -121 l35 -36 -40 -36 c-21 -19 -37 -38 -33 -41 3 -3 23 -6 44 -6 55 0 98 43 98 98 0 50 -18 72 -98 117 -71 39 -72 39 -72 25z"/>
<path d="M1400 779 c0 -68 11 -106 34 -121 20 -13 69 -8 88 9 17 15 18 15 18 0 0 -10 8 -17 20 -17 19 0 20 7 20 100 0 93 -1 100 -20 100 -18 0 -20 -7 -20 -63 0 -71 -18 -107 -54 -107 -37 0 -46 19 -46 97 0 66 -2 73 -20 73 -18 0 -20 -7 -20 -71z"/>
<path d="M1860 750 c0 -93 1 -100 20 -100 19 0 20 7 20 100 0 93 -1 100 -20 100 -19 0 -20 -7 -20 -100z"/>
<path d="M2220 750 c0 -93 1 -100 20 -100 18 0 20 7 20 73 0 80 9 97 52 97 38 0 51 -29 46 -106 -4 -59 -2 -64 17 -64 19 0 20 4 15 90 -4 66 -9 93 -20 100 -20 13 -87 13 -95 0 -3 -5 -11 -10 -16 -10 -6 0 -7 5 -4 10 3 6 -3 10 -14 10 -20 0 -21 -6 -21 -100z"/>
<path d="M636 791 c-10 -11 -21 -40 -23 -65 -5 -40 -2 -48 25 -76 43 -42 79 -40 169 12 46 26 69 44 61 49 -31 16 -99 19 -138 5 -46 -16 -47 -15 -67 63 l-8 33 -19 -21z"/>
</g>
</svg>