<svg xmlns="http://www.w3.org/2000/svg" version="1.0" width="300.000000pt" height="84.000000pt" viewBox="0 0 300.000000 84.000000" preserveAspectRatio="xMidYMid meet">  <g transform="translate(0.000000,84.000000) scale(0.100000,-0.100000)" fill="#ffffff" stroke="none"> <path d="M437 552 c-13 -14 -17 -38 -17 -96 0 -42 -5 -86 -10 -97 -10 -18 -7 -19 37 -19 36 0 44 3 35 12 -18 18 -16 108 3 108 22 0 18 17 -5 23 -15 4 -20 14 -20 36 0 35 14 41 30 11 13 -25 40 -26 40 -2 0 42 -63 58 -93 24z"/> <path d="M1220 560 c-9 -5 -14 -21 -12 -38 3 -26 1 -28 -34 -28 -44 0 -74 -31 -74 -76 0 -64 37 -87 127 -80 49 4 52 5 42 23 -6 11 -10 57 -9 102 1 45 1 88 1 95 -1 14 -20 16 -41 2z m-12 -139 c3 -59 -8 -82 -32 -62 -17 14 -29 74 -21 102 5 14 14 19 28 17 19 -3 22 -10 25 -57z"/> <path d="M1825 557 c-18 -11 -20 -23 -20 -113 l0 -102 55 -5 c64 -5 93 6 109 40 28 60 -2 117 -62 117 -34 0 -36 2 -39 35 -3 39 -14 46 -43 28z m94 -114 c14 -49 14 -55 -3 -78 -24 -33 -46 -3 -46 61 0 47 3 54 20 54 14 0 22 -11 29 -37z"/> <path d="M560 487 c-82 -42 -48 -151 48 -151 40 0 82 40 82 79 0 56 -78 100 -130 72z m58 -32 c15 -33 15 -92 1 -101 -26 -16 -61 70 -46 111 9 23 32 18 45 -10z"/> <path d="M730 487 c-11 -9 -14 -26 -10 -72 4 -53 8 -61 32 -73 19 -9 34 -10 45 -4 9 5 35 7 57 5 34 -5 39 -3 29 8 -8 7 -13 39 -13 74 0 34 -3 64 -6 68 -3 3 -16 1 -27 -4 -19 -9 -22 -17 -19 -63 3 -37 -1 -56 -11 -64 -22 -19 -35 5 -39 73 -3 60 -12 73 -38 52z"/> <path d="M984 489 c-3 -6 -14 -9 -24 -6 -22 6 -67 -18 -51 -27 15 -9 14 -89 -1 -104 -9 -9 -1 -12 35 -12 44 0 47 1 37 19 -15 30 -12 97 5 111 27 22 38 -2 33 -69 l-4 -61 38 0 c35 0 38 2 28 19 -5 11 -10 40 -10 65 0 35 -5 48 -22 60 -26 19 -54 21 -64 5z"/> <path d="M1324 476 c-34 -28 -38 -84 -9 -116 24 -27 85 -27 110 0 21 23 13 39 -9 21 -16 -13 -56 -6 -56 10 0 5 16 17 35 26 40 19 48 55 16 73 -31 16 -58 12 -87 -14z m64 -19 c4 -21 -29 -50 -42 -37 -5 5 -6 20 -2 35 8 30 39 31 44 2z"/> <path d="M1533 485 c-13 -9 -24 -11 -28 -5 -4 6 -15 5 -30 -2 -19 -9 -22 -14 -14 -25 7 -8 10 -34 7 -63 l-5 -50 38 0 c37 0 51 12 29 25 -13 8 -13 75 0 95 8 12 10 12 16 -3 3 -9 15 -17 26 -17 15 0 19 6 16 27 -4 33 -24 39 -55 18z"/> <path d="M1632 484 c-13 -9 -22 -26 -22 -40 0 -21 8 -29 40 -41 27 -11 40 -22 40 -35 0 -24 -27 -23 -40 2 -12 22 -35 26 -46 9 -20 -33 85 -59 120 -30 29 24 20 59 -21 78 -21 10 -39 26 -41 36 -5 24 25 22 38 -3 14 -26 40 -26 40 0 0 36 -69 52 -108 24z"/> <path d="M2028 493 c-18 -5 -31 -30 -22 -44 10 -16 32 -10 39 12 9 26 39 21 43 -9 3 -19 -1 -22 -30 -22 -39 0 -58 -15 -58 -46 0 -28 23 -46 57 -45 16 0 48 1 72 0 35 0 42 3 34 13 -6 7 -13 33 -16 58 -9 69 -54 100 -119 83z m62 -94 c12 -22 7 -49 -9 -49 -15 0 -32 36 -25 54 8 22 21 20 34 -5z"/> <path d="M2155 491 c-3 -5 -1 -13 5 -16 6 -4 26 -38 45 -76 29 -56 33 -73 25 -89 -14 -26 -24 -25 -43 3 -12 17 -18 19 -27 10 -15 -14 -7 -41 15 -49 40 -16 61 4 113 111 29 59 52 108 52 111 0 9 -49 4 -55 -6 -3 -5 -1 -10 4 -10 15 0 14 -21 -5 -65 l-16 -38 -19 43 c-11 24 -17 51 -14 62 6 15 1 18 -34 18 -22 0 -42 -4 -46 -9z"/> <path d="M2425 488 c-21 -12 -44 -38 -45 -50 0 -4 12 -3 27 3 18 7 36 6 56 -1 50 -17 91 -12 115 13 12 13 22 25 22 28 0 2 -21 4 -47 5 -27 0 -61 3 -78 7 -18 4 -38 2 -50 -5z"/> <path d="M2403 394 c-21 -9 -15 -22 17 -39 38 -20 94 -19 125 1 35 23 31 29 -17 30 -24 0 -59 4 -78 7 -19 3 -41 4 -47 1z"/> </g> </svg>