<svg xmlns="http://www.w3.org/2000/svg" version="1.0" width="265.000000pt" height="102.000000pt" viewBox="0 0 265.000000 102.000000" preserveAspectRatio="xMidYMid meet">
<metadata>
Created by potrace 1.10, written by Peter Selinger 2001-2011
</metadata>
<g transform="translate(0.000000,102.000000) scale(0.100000,-0.100000)" fill="#000000" stroke="none">
<path d="M217 736 c-12 -6 -31 -30 -41 -53 -11 -23 -29 -46 -40 -52 -20 -9 -19 -10 5 -10 15 -1 32 -8 39 -16 7 -8 22 -15 34 -15 19 1 19 2 -6 18 -33 19 -32 19 -13 65 20 47 38 56 105 50 63 -6 80 -18 100 -68 12 -30 19 -35 44 -35 l31 1 -27 16 c-15 10 -33 30 -39 46 -7 16 -22 34 -33 42 -28 17 -131 24 -159 11z"/>
<path d="M1944 639 c-16 -5 -41 -20 -54 -34 -28 -30 -41 -31 -65 -5 -27 30 -61 25 -82 -11 -14 -23 -22 -28 -38 -23 -38 14 -139 11 -163 -5 -21 -13 -27 -13 -52 2 -36 21 -73 21 -117 1 -26 -13 -39 -14 -56 -6 -12 6 -45 14 -73 17 -54 7 -96 -7 -123 -39 -20 -24 -25 -20 -45 27 -25 55 -44 77 -71 77 -32 0 -48 -24 -94 -143 -46 -122 -48 -137 -23 -160 26 -24 36 -21 73 18 19 19 39 35 46 35 7 0 27 -16 44 -35 18 -19 36 -35 40 -35 4 0 21 -13 37 -29 64 -65 163 -49 209 33 8 15 14 16 31 7 30 -16 104 -13 130 5 21 15 25 15 41 0 10 -9 22 -16 28 -16 22 0 48 44 53 91 6 55 24 67 26 16 1 -17 2 -42 3 -54 0 -13 12 -30 25 -38 23 -15 27 -15 50 0 23 15 27 15 48 1 29 -21 67 -20 90 1 18 16 21 16 48 0 15 -10 49 -20 74 -23 37 -6 52 -2 90 20 25 15 46 26 47 24 0 -2 3 -19 6 -38 2 -19 9 -41 15 -47 17 -21 52 -15 72 11 10 14 32 28 49 32 18 4 42 13 54 21 20 14 27 13 67 -7 38 -18 51 -20 83 -11 66 18 99 79 69 126 -13 19 -14 30 -6 45 31 59 -72 114 -140 75 -14 -8 -30 -17 -37 -21 -7 -3 -25 4 -39 15 -23 18 -37 21 -90 17 -34 -2 -67 -6 -72 -10 -5 -3 -24 10 -42 29 -47 49 -101 63 -166 44z m126 -47 c57 -43 63 -161 10 -213 -15 -15 -40 -31 -56 -35 -43 -11 -105 15 -127 54 -24 41 -25 117 -3 161 31 60 118 76 176 33z m-1004 -95 c23 -61 45 -120 49 -130 6 -16 4 -18 -16 -15 -16 2 -25 12 -31 36 -8 31 -10 32 -62 32 -51 0 -53 -1 -62 -32 -7 -24 -17 -34 -33 -36 -20 -3 -23 -1 -16 15 32 81 78 202 82 221 4 14 13 22 27 22 18 0 27 -17 62 -113z m744 78 c0 -18 5 -25 20 -25 14 0 20 -7 20 -21 0 -16 -4 -19 -20 -14 -19 6 -20 2 -20 -64 0 -64 2 -71 20 -71 11 0 20 -7 20 -15 0 -18 -50 -21 -68 -3 -7 7 -12 42 -12 86 0 62 -2 73 -15 68 -10 -4 -15 1 -15 14 0 11 7 20 15 20 9 0 15 9 15 25 0 18 5 25 20 25 15 0 20 -7 20 -25z m-558 -42 c17 -15 18 -15 18 0 0 10 8 17 20 17 19 0 20 -7 20 -110 0 -104 -1 -112 -25 -135 -31 -32 -91 -34 -129 -4 -48 37 -24 54 32 22 43 -24 82 -6 82 37 0 29 -1 30 -16 16 -35 -35 -98 -14 -120 41 -35 84 55 173 118 116z m220 6 c18 -10 48 -65 48 -89 0 -6 -29 -10 -70 -10 -61 0 -70 -2 -70 -18 0 -42 59 -56 105 -26 21 14 25 14 25 2 0 -18 -27 -43 -57 -52 -12 -4 -37 0 -57 8 -85 36 -60 196 31 196 13 0 33 -5 45 -11z m110 -9 c-3 -11 1 -10 16 3 26 24 75 22 98 -4 14 -16 20 -40 23 -100 3 -75 2 -79 -18 -79 -19 0 -21 6 -21 69 0 89 -22 117 -71 91 -16 -9 -19 -22 -19 -85 0 -68 -2 -75 -20 -75 -19 0 -20 7 -20 101 0 90 2 100 18 97 9 -2 16 -11 14 -18z m608 3 c0 -15 1 -15 18 0 27 24 69 21 97 -8 23 -22 30 -49 26 -100 -5 -62 -60 -96 -112 -70 l-29 16 0 -46 c0 -33 -4 -45 -15 -45 -13 0 -15 22 -15 135 0 113 2 135 15 135 8 0 15 -7 15 -17z m307 -5 c13 -12 23 -25 23 -30 0 -13 -30 -9 -46 7 -19 19 -48 19 -64 0 -17 -20 -6 -31 43 -44 54 -13 71 -32 63 -67 -8 -30 -66 -58 -99 -48 -25 7 -57 33 -57 46 0 13 28 9 53 -7 28 -18 67 -9 67 15 0 12 -16 23 -52 36 -47 17 -53 23 -56 51 -6 58 77 86 125 41z"/>
<path d="M1952 573 c-19 -7 -42 -58 -42 -93 0 -37 23 -85 45 -94 9 -3 32 -6 50 -6 47 0 75 37 75 100 0 65 -28 100 -78 99 -20 0 -43 -3 -50 -6z m86 -56 c10 -21 11 -35 2 -61 -27 -83 -112 -36 -89 48 15 54 64 61 87 13z"/>
<path d="M987 518 c-10 -31 -17 -59 -17 -62 0 -3 16 -6 35 -6 40 0 41 4 16 75 l-18 50 -16 -57z"/>
<path d="M1185 506 c-22 -16 -26 -76 -6 -100 17 -20 55 -21 75 0 24 24 20 80 -6 98 -28 20 -39 20 -63 2z m45 -57 c0 -20 -15 -26 -24 -10 -8 13 4 42 15 35 5 -3 9 -14 9 -25z"/>
<path d="M1397 502 c-27 -30 -20 -38 33 -38 54 0 63 11 32 39 -24 22 -45 21 -65 -1z"/>
<path d="M2210 500 c-26 -26 -26 -81 -2 -103 40 -36 92 -7 92 51 0 34 -29 72 -55 72 -8 0 -24 -9 -35 -20z m50 -55 c0 -16 -6 -25 -15 -25 -9 0 -15 9 -15 25 0 16 6 25 15 25 9 0 15 -9 15 -25z"/>
<path d="M296 623 c-28 -4 -56 -24 -56 -39 0 -8 142 0 158 10 6 4 9 13 5 21 -5 15 -42 17 -107 8z"/>
<path d="M438 593 c-12 -3 -18 -14 -18 -31 -1 -30 -28 -145 -29 -123 -1 11 -7 8 -22 -8 -11 -12 -32 -26 -45 -31 -29 -11 -79 -3 -95 16 -20 24 -30 15 -13 -11 23 -35 12 -41 -26 -13 -25 18 -29 25 -18 32 12 7 12 18 1 70 -7 33 -11 66 -8 73 2 6 -3 14 -11 17 -28 11 -35 7 -24 -14 6 -11 13 -56 15 -101 5 -70 3 -84 -15 -106 -25 -32 -26 -75 -2 -95 13 -12 46 -16 147 -17 166 -2 182 3 223 64 46 68 34 116 -42 160 -15 8 -16 16 -8 50 5 22 13 48 17 58 7 17 4 18 -27 10z m42 -173 c27 -27 25 -56 -5 -86 -14 -14 -25 -31 -25 -39 0 -8 -4 -15 -10 -15 -5 0 -10 9 -10 20 0 11 -4 20 -8 20 -17 0 -29 45 -21 74 13 49 46 59 79 26z m-98 -36 c-3 -26 1 -41 18 -59 12 -13 19 -28 15 -34 -9 -16 -285 -14 -285 2 0 16 38 77 47 77 27 -1 52 -15 56 -31 3 -10 11 -19 17 -19 9 0 8 7 -3 23 -19 29 -8 52 21 43 17 -6 19 -13 15 -46 -5 -32 -2 -40 10 -40 12 0 15 9 12 38 -3 36 7 52 33 52 14 0 16 -36 2 -45 -12 -8 -13 -25 -2 -25 11 0 35 51 28 58 -5 4 11 42 17 42 2 0 1 -16 -1 -36z"/>
<path d="M189 567 c12 -12 200 -14 205 -2 2 6 -37 10 -105 10 -59 0 -105 -3 -100 -8z"/>
</g>
</svg>