<svg xmlns="http://www.w3.org/2000/svg" version="1.0" width="300.000000pt" height="112.000000pt" viewBox="0 0 300.000000 112.000000" preserveAspectRatio="xMidYMid meet">  <g transform="translate(0.000000,112.000000) scale(0.100000,-0.100000)" fill="#000000" stroke="none"> <path d="M0 560 l0 -560 1500 0 1500 0 0 560 0 560 -1500 0 -1500 0 0 -560z m196 447 c31 12 71 -49 83 -128 5 -27 5 -49 1 -49 -4 0 -10 23 -13 51 -4 28 -15 65 -25 82 -15 26 -24 32 -50 31 -23 -1 -32 3 -32 14 0 12 3 13 11 5 6 -6 18 -9 25 -6z m-48 -71 c-34 -26 -35 -44 -5 -56 13 -5 16 -9 6 -9 -22 -1 -39 19 -39 46 0 16 6 23 20 23 11 0 23 7 27 15 3 9 8 13 12 10 3 -4 -6 -17 -21 -29z m20 -148 c0 -40 3 -91 6 -113 3 -22 8 -62 11 -90 10 -84 13 -91 51 -127 32 -31 37 -44 46 -112 8 -52 14 -74 21 -67 7 7 15 7 24 0 10 -9 13 -8 14 2 9 112 15 119 97 119 38 0 72 4 78 10 15 15 28 0 61 -68 24 -49 32 -58 36 -42 8 29 31 25 63 -13 l27 -32 -6 60 c-20 184 -20 191 -3 207 10 11 16 33 16 62 0 52 -16 62 -80 51 -26 -4 -40 -3 -40 4 0 17 -97 39 -200 46 -52 4 -98 10 -102 13 -9 9 -13 110 -5 119 4 3 7 -21 7 -54 l0 -61 123 -4 c101 -3 129 -7 163 -25 30 -16 51 -21 78 -16 53 8 76 -16 76 -79 0 -35 -5 -53 -21 -69 -15 -15 -19 -27 -14 -51 12 -51 19 -163 16 -255 -1 -51 -2 -53 -28 -53 -21 0 -24 3 -15 12 20 20 14 86 -10 118 -25 35 -42 39 -33 10 4 -13 -2 -37 -14 -61 -12 -22 -21 -46 -21 -54 0 -8 -9 -15 -20 -15 -11 0 -20 4 -20 8 0 4 9 25 20 47 25 50 25 62 -2 105 -13 19 -23 44 -23 55 0 13 -5 18 -15 15 -8 -3 -47 -5 -87 -5 l-71 0 -6 -60 c-3 -33 -6 -77 -6 -98 0 -49 -15 -77 -40 -77 -22 0 -26 20 -9 37 6 6 9 28 7 49 -4 41 -7 37 -28 -33 -9 -30 -19 -43 -32 -43 -22 0 -23 9 -3 46 13 23 14 48 9 122 -6 90 -7 93 -45 131 -35 34 -39 44 -39 88 0 27 -4 53 -10 59 -17 17 -22 254 -6 254 2 0 3 -33 4 -72z m842 -328 l0 -120 65 0 c59 0 65 -2 65 -20 0 -20 -5 -21 -86 -18 l-86 3 -1 138 c-2 136 -2 137 21 137 22 0 22 -2 22 -120z m200 -20 c0 -133 -1 -140 -20 -140 -19 0 -20 7 -20 140 0 133 1 140 20 140 19 0 20 -7 20 -140z m840 0 c0 -133 -1 -140 -20 -140 -19 0 -20 7 -20 140 0 133 1 140 20 140 19 0 20 -7 20 -140z m430 1 l0 -139 -63 -1 c-56 -1 -67 2 -87 24 -18 20 -24 37 -24 74 0 82 51 129 110 102 23 -10 24 -10 24 34 0 38 3 45 20 45 19 0 20 -7 20 -139z m-1082 53 c18 -13 22 -25 22 -72 0 -31 4 -72 9 -90 9 -30 8 -32 -15 -32 -13 0 -24 5 -24 10 0 7 -6 7 -19 0 -11 -5 -34 -10 -51 -10 -50 0 -70 16 -70 55 0 39 28 65 70 65 14 0 35 3 47 6 19 5 21 10 12 25 -12 23 -67 26 -75 4 -4 -8 -17 -15 -30 -15 -27 0 -28 3 -13 31 20 38 97 51 137 23z m206 0 c14 -14 18 -14 38 0 29 21 57 20 80 -1 15 -13 18 -32 18 -105 0 -81 -2 -88 -20 -88 -18 0 -20 7 -20 80 0 65 -3 82 -16 87 -35 13 -49 -10 -52 -91 -3 -68 -5 -76 -22 -76 -18 0 -20 7 -20 69 0 85 -6 101 -36 101 -32 0 -44 -27 -44 -104 0 -59 -2 -66 -20 -66 -19 0 -20 7 -20 101 l0 101 24 -4 c14 -3 31 -1 38 3 21 14 55 10 72 -7z m324 -1 c17 -15 21 -33 24 -105 4 -78 3 -88 -13 -88 -10 0 -19 6 -22 13 -4 10 -7 10 -18 0 -17 -17 -80 -16 -103 0 -22 16 -24 63 -3 84 8 8 36 19 63 24 55 10 59 13 51 34 -8 20 -73 21 -81 0 -3 -8 -15 -15 -26 -15 -23 0 -24 4 -9 31 21 39 102 52 137 22z m322 -3 c17 -17 20 -33 20 -105 0 -78 -2 -85 -20 -85 -17 0 -19 8 -22 83 -3 79 -4 82 -28 85 -45 4 -54 -11 -58 -92 -4 -67 -7 -76 -23 -76 -17 0 -19 9 -19 101 l0 101 24 -4 c14 -3 31 -1 38 3 23 15 67 10 88 -11z m421 -9 c19 -20 29 -40 29 -60 l0 -31 -70 0 c-74 0 -84 -8 -53 -42 21 -24 49 -23 70 2 19 22 53 27 53 8 0 -6 -10 -22 -22 -35 -31 -33 -100 -32 -133 2 -21 20 -25 34 -25 79 0 48 3 57 31 80 41 35 83 34 120 -3z m117 -11 c9 -16 19 -30 22 -30 3 0 13 14 22 30 12 21 25 30 43 30 l27 0 -31 -42 c-17 -23 -31 -46 -31 -50 0 -4 16 -30 36 -58 l36 -50 -26 0 c-19 0 -32 10 -48 35 -13 19 -26 35 -29 35 -3 0 -14 -16 -25 -35 -14 -27 -25 -35 -47 -35 l-28 0 40 53 39 53 -35 47 -35 47 27 0 c18 0 31 -9 43 -30z"/> <path d="M2359 454 c-21 -25 -17 -93 6 -110 24 -18 40 -18 59 2 19 18 22 94 4 112 -17 17 -53 15 -69 -4z"/> <path d="M1342 390 c-41 -10 -57 -24 -49 -44 8 -19 47 -21 69 -3 18 13 34 58 21 56 -4 -1 -23 -5 -41 -9z"/> <path d="M1872 390 c-41 -10 -57 -24 -49 -44 14 -37 87 -7 87 35 0 10 -1 19 -2 18 -2 -1 -18 -5 -36 -9z"/> <path d="M2572 458 c-26 -26 -13 -38 38 -38 34 0 50 4 50 13 0 21 -22 37 -50 37 -14 0 -31 -5 -38 -12z"/> </g> </svg>